<svg id="Logotype" xmlns="http://www.w3.org/2000/svg" width="301.629" height="50" viewBox="0 0 301.629 50">
  <g id="Groupe_902" data-name="Groupe 902" transform="translate(83.776)">
    <g id="Groupe_876" data-name="Groupe 876">
      <g id="Groupe_854" data-name="Groupe 854">
        <path id="Tracé_299" data-name="Tracé 299" d="M307.421,275.505a12.08,12.08,0,0,1-4.569-.815,8.123,8.123,0,0,1-3.194-2.212,9.861,9.861,0,0,1-1.8-3.123,11.16,11.16,0,0,1-.607-3.712,10.549,10.549,0,0,1,2.707-7.358,9.625,9.625,0,0,1,7.46-2.973,9.835,9.835,0,0,1,7.155,2.928l.032.032-.031.032-1.958,2.014-.033-.033a6.7,6.7,0,0,0-2.39-1.516,7.848,7.848,0,0,0-2.775-.533,6.626,6.626,0,0,0-5.165,2.13,7.538,7.538,0,0,0-1.884,5.277,7.126,7.126,0,0,0,1.774,4.893,6.724,6.724,0,0,0,5.274,1.992,7.09,7.09,0,0,0,4.656-1.681v-3.837h-5.362v-2.843h8.316v7.959l-.012.012A9.9,9.9,0,0,1,307.421,275.505Z" transform="translate(-297.254 -255.311)" fill="#fff"/>
      </g>
      <g id="Groupe_855" data-name="Groupe 855">
        <path id="Tracé_300" data-name="Tracé 300" d="M307.421,275.505a12.08,12.08,0,0,1-4.569-.815,8.123,8.123,0,0,1-3.194-2.212,9.861,9.861,0,0,1-1.8-3.123,11.16,11.16,0,0,1-.607-3.712,10.549,10.549,0,0,1,2.707-7.358,9.625,9.625,0,0,1,7.46-2.973,9.835,9.835,0,0,1,7.155,2.928l.032.032-.031.032-1.958,2.014-.033-.033a6.7,6.7,0,0,0-2.39-1.516,7.848,7.848,0,0,0-2.775-.533,6.626,6.626,0,0,0-5.165,2.13,7.538,7.538,0,0,0-1.884,5.277,7.126,7.126,0,0,0,1.774,4.893,6.724,6.724,0,0,0,5.274,1.992,7.09,7.09,0,0,0,4.656-1.681v-3.837h-5.362v-2.843h8.316v7.959l-.012.012A9.9,9.9,0,0,1,307.421,275.505Z" transform="translate(-297.254 -255.311)" fill="#fff"/>
      </g>
      <g id="Groupe_856" data-name="Groupe 856" transform="translate(22.994 0.468)">
        <path id="Tracé_301" data-name="Tracé 301" d="M350.456,275.445h-14.31V256.1h14.228v3.089H339.319V264.3h10.614v2.951H339.319v5.078h11.137Z" transform="translate(-336.146 -256.102)" fill="#fff"/>
      </g>
      <g id="Groupe_857" data-name="Groupe 857" transform="translate(22.994 0.468)">
        <path id="Tracé_302" data-name="Tracé 302" d="M350.456,275.445h-14.31V256.1h14.228v3.089H339.319V264.3h10.614v2.951H339.319v5.078h11.137Z" transform="translate(-336.146 -256.102)" fill="#fff"/>
      </g>
      <g id="Groupe_858" data-name="Groupe 858" transform="translate(42.551 0.439)">
        <path id="Tracé_303" data-name="Tracé 303" d="M385.962,275.425h-3.7l-5.859-6.656h-4v6.656h-3.173V256.054h.046c.893,0,2.192,0,4.483.014,2.175.011,3.557.014,4.483.014a6.713,6.713,0,0,1,5.025,1.868,6.232,6.232,0,0,1,1.814,4.475,6.366,6.366,0,0,1-1.288,3.975,5.792,5.792,0,0,1-3.892,2.053l5.691,6.345ZM372.4,265.873h5.812a3.573,3.573,0,0,0,2.717-.976,3.4,3.4,0,0,0,.923-2.417,3.61,3.61,0,0,0-.925-2.458,3.411,3.411,0,0,0-2.688-1.044H372.4Z" transform="translate(-369.224 -256.054)" fill="#fff"/>
      </g>
      <g id="Groupe_859" data-name="Groupe 859" transform="translate(42.551 0.439)">
        <path id="Tracé_304" data-name="Tracé 304" d="M385.962,275.425h-3.7l-5.859-6.656h-4v6.656h-3.173V256.054h.046c.893,0,2.192,0,4.483.014,2.175.011,3.557.014,4.483.014a6.713,6.713,0,0,1,5.025,1.868,6.232,6.232,0,0,1,1.814,4.475,6.366,6.366,0,0,1-1.288,3.975,5.792,5.792,0,0,1-3.892,2.053l5.691,6.345ZM372.4,265.873h5.812a3.573,3.573,0,0,0,2.717-.976,3.4,3.4,0,0,0,.923-2.417,3.61,3.61,0,0,0-.925-2.458,3.411,3.411,0,0,0-2.688-1.044H372.4Z" transform="translate(-369.224 -256.054)" fill="#fff"/>
      </g>
      <g id="Groupe_860" data-name="Groupe 860" transform="translate(62.575 0.109)">
        <path id="Tracé_305" data-name="Tracé 305" d="M412.984,275.609a10.855,10.855,0,0,1-4.363-.842,8.294,8.294,0,0,1-3.11-2.254,10.33,10.33,0,0,1-1.8-3.164,11.078,11.078,0,0,1-.621-3.714,10.029,10.029,0,0,1,2.79-7.277,9.607,9.607,0,0,1,7.155-2.862,9.245,9.245,0,0,1,7.269,2.973,10.521,10.521,0,0,1,2.57,7.139,11.385,11.385,0,0,1-.623,3.769,10.19,10.19,0,0,1-1.795,3.19,8.056,8.056,0,0,1-3.111,2.227A11.205,11.205,0,0,1,412.984,275.609Zm.054-17.215a6.368,6.368,0,0,0-5.011,2.018,7.665,7.665,0,0,0-1.791,5.251,8.747,8.747,0,0,0,.425,2.528,7.418,7.418,0,0,0,1.189,2.243,5.589,5.589,0,0,0,2.113,1.636,7.133,7.133,0,0,0,3.021.615,6.271,6.271,0,0,0,5.053-2,7.554,7.554,0,0,0,1.693-5.017,8.807,8.807,0,0,0-.669-3.449,6.288,6.288,0,0,0-2.238-2.687,6.568,6.568,0,0,0-3.785-1.134Z" transform="translate(-403.093 -255.496)" fill="#fff"/>
      </g>
      <g id="Groupe_861" data-name="Groupe 861" transform="translate(62.575 0.109)">
        <path id="Tracé_306" data-name="Tracé 306" d="M412.984,275.609a10.855,10.855,0,0,1-4.363-.842,8.294,8.294,0,0,1-3.11-2.254,10.33,10.33,0,0,1-1.8-3.164,11.078,11.078,0,0,1-.621-3.714,10.029,10.029,0,0,1,2.79-7.277,9.607,9.607,0,0,1,7.155-2.862,9.245,9.245,0,0,1,7.269,2.973,10.521,10.521,0,0,1,2.57,7.139,11.385,11.385,0,0,1-.623,3.769,10.19,10.19,0,0,1-1.795,3.19,8.056,8.056,0,0,1-3.111,2.227A11.205,11.205,0,0,1,412.984,275.609Zm.054-17.215a6.368,6.368,0,0,0-5.011,2.018,7.665,7.665,0,0,0-1.791,5.251,8.747,8.747,0,0,0,.425,2.528,7.418,7.418,0,0,0,1.189,2.243,5.589,5.589,0,0,0,2.113,1.636,7.133,7.133,0,0,0,3.021.615,6.271,6.271,0,0,0,5.053-2,7.554,7.554,0,0,0,1.693-5.017,8.807,8.807,0,0,0-.669-3.449,6.288,6.288,0,0,0-2.238-2.687,6.568,6.568,0,0,0-3.785-1.134Z" transform="translate(-403.093 -255.496)" fill="#fff"/>
      </g>
      <g id="Groupe_862" data-name="Groupe 862" transform="translate(87.303 0.495)">
        <path id="Tracé_307" data-name="Tracé 307" d="M448.09,275.464h-3.173V256.148h13.706v3.089H448.09V265H458.1v2.953H448.09Z" transform="translate(-444.917 -256.148)" fill="#fff"/>
      </g>
      <g id="Groupe_863" data-name="Groupe 863" transform="translate(87.303 0.495)">
        <path id="Tracé_308" data-name="Tracé 308" d="M448.09,275.464h-3.173V256.148h13.706v3.089H448.09V265H458.1v2.953H448.09Z" transform="translate(-444.917 -256.148)" fill="#fff"/>
      </g>
      <g id="Groupe_864" data-name="Groupe 864" transform="translate(105.897 0.467)">
        <path id="Tracé_309" data-name="Tracé 309" d="M479.511,275.443h-3.145V256.1h3.145Z" transform="translate(-476.366 -256.101)" fill="#fff"/>
      </g>
      <g id="Groupe_865" data-name="Groupe 865" transform="translate(105.897 0.467)">
        <path id="Tracé_310" data-name="Tracé 310" d="M479.511,275.443h-3.145V256.1h3.145Z" transform="translate(-476.366 -256.101)" fill="#fff"/>
      </g>
      <g id="Groupe_866" data-name="Groupe 866" transform="translate(115.166 0.468)">
        <path id="Tracé_311" data-name="Tracé 311" d="M508.5,275.445h-2.4l-.014-.017-10.835-13.485v13.5h-3.2V256.1h2.434l.014.018,10.834,13.592V256.1H508.5Z" transform="translate(-492.043 -256.102)" fill="#fff"/>
      </g>
      <g id="Groupe_867" data-name="Groupe 867" transform="translate(115.166 0.468)">
        <path id="Tracé_312" data-name="Tracé 312" d="M508.5,275.445h-2.4l-.014-.017-10.835-13.485v13.5h-3.2V256.1h2.434l.014.018,10.834,13.592V256.1H508.5Z" transform="translate(-492.043 -256.102)" fill="#fff"/>
      </g>
      <g id="Groupe_868" data-name="Groupe 868" transform="translate(135.551 0.467)">
        <path id="Tracé_313" data-name="Tracé 313" d="M547.291,275.444h-3.374l-.014-.027-1.83-4.016H531.711l-1.815,4.043h-3.374l.028-.064L535.2,256.1h3.413l.014.028Zm-14.385-6.94h8l-4-9Z" transform="translate(-526.522 -256.101)" fill="#fff"/>
      </g>
      <g id="Groupe_869" data-name="Groupe 869" transform="translate(135.551 0.467)">
        <path id="Tracé_314" data-name="Tracé 314" d="M547.291,275.444h-3.374l-.014-.027-1.83-4.016H531.711l-1.815,4.043h-3.374l.028-.064L535.2,256.1h3.413l.014.028Zm-14.385-6.94h8l-4-9Z" transform="translate(-526.522 -256.101)" fill="#fff"/>
      </g>
      <g id="Groupe_870" data-name="Groupe 870" transform="translate(160.248 0.468)">
        <path id="Tracé_315" data-name="Tracé 315" d="M584.751,275.445h-2.406l-.014-.017-10.837-13.485v13.5h-3.2V256.1h2.433l.014.018,10.837,13.592V256.1h3.172Z" transform="translate(-568.295 -256.102)" fill="#fff"/>
      </g>
      <g id="Groupe_871" data-name="Groupe 871" transform="translate(160.248 0.468)">
        <path id="Tracé_316" data-name="Tracé 316" d="M584.751,275.445h-2.406l-.014-.017-10.837-13.485v13.5h-3.2V256.1h2.433l.014.018,10.837,13.592V256.1h3.172Z" transform="translate(-568.295 -256.102)" fill="#fff"/>
      </g>
      <g id="Groupe_872" data-name="Groupe 872" transform="translate(181.65 0.137)">
        <path id="Tracé_317" data-name="Tracé 317" d="M614.687,275.6a11.756,11.756,0,0,1-4.529-.828,8.5,8.5,0,0,1-3.207-2.241,9.915,9.915,0,0,1-1.838-3.15,10.98,10.98,0,0,1-.62-3.7,11.129,11.129,0,0,1,.634-3.742,10.544,10.544,0,0,1,1.851-3.229A8.446,8.446,0,0,1,610.2,256.4a11.376,11.376,0,0,1,4.487-.856,9.684,9.684,0,0,1,7.073,2.928l.034.033-.034.033-2.1,2.012-.032-.032a6.787,6.787,0,0,0-4.944-1.966,6.606,6.606,0,0,0-5.247,2.1,7.3,7.3,0,0,0-1.8,5,7.4,7.4,0,0,0,1.8,4.936,6.625,6.625,0,0,0,5.247,2.031,7.347,7.347,0,0,0,2.733-.545,6.934,6.934,0,0,0,2.35-1.53l.033-.033,2.183,2.182-.032.033A9.954,9.954,0,0,1,614.687,275.6Z" transform="translate(-604.493 -255.543)" fill="#fff"/>
      </g>
      <g id="Groupe_873" data-name="Groupe 873" transform="translate(181.65 0.137)">
        <path id="Tracé_318" data-name="Tracé 318" d="M614.687,275.6a11.756,11.756,0,0,1-4.529-.828,8.5,8.5,0,0,1-3.207-2.241,9.915,9.915,0,0,1-1.838-3.15,10.98,10.98,0,0,1-.62-3.7,11.129,11.129,0,0,1,.634-3.742,10.544,10.544,0,0,1,1.851-3.229A8.446,8.446,0,0,1,610.2,256.4a11.376,11.376,0,0,1,4.487-.856,9.684,9.684,0,0,1,7.073,2.928l.034.033-.034.033-2.1,2.012-.032-.032a6.787,6.787,0,0,0-4.944-1.966,6.606,6.606,0,0,0-5.247,2.1,7.3,7.3,0,0,0-1.8,5,7.4,7.4,0,0,0,1.8,4.936,6.625,6.625,0,0,0,5.247,2.031,7.347,7.347,0,0,0,2.733-.545,6.934,6.934,0,0,0,2.35-1.53l.033-.033,2.183,2.182-.032.033A9.954,9.954,0,0,1,614.687,275.6Z" transform="translate(-604.493 -255.543)" fill="#fff"/>
      </g>
      <g id="Groupe_874" data-name="Groupe 874" transform="translate(203.544 0.468)">
        <path id="Tracé_319" data-name="Tracé 319" d="M655.834,275.445h-14.31V256.1h14.228v3.089H644.695V264.3h10.616v2.951H644.695v5.078h11.139Z" transform="translate(-641.524 -256.102)" fill="#fff"/>
      </g>
      <g id="Groupe_875" data-name="Groupe 875" transform="translate(203.544 0.468)">
        <path id="Tracé_320" data-name="Tracé 320" d="M655.834,275.445h-14.31V256.1h14.228v3.089H644.695V264.3h10.616v2.951H644.695v5.078h11.139Z" transform="translate(-641.524 -256.102)" fill="#fff"/>
      </g>
    </g>
    <g id="Groupe_901" data-name="Groupe 901" transform="translate(0.433 29.619)">
      <g id="Groupe_877" data-name="Groupe 877" transform="translate(0 4.802)">
        <path id="Tracé_321" data-name="Tracé 321" d="M311.1,328.691h-2.919l-.014-.015-4.563-5.187h-3.115v5.2h-2.5V313.53h.047c.77,0,1.949,0,3.5.012s2.733.012,3.5.012a5.25,5.25,0,0,1,3.934,1.463,4.876,4.876,0,0,1,1.421,3.5,4.989,4.989,0,0,1-1.009,3.112,4.534,4.534,0,0,1-3.029,1.606l4.434,4.945ZM300.487,321.2h4.532a2.794,2.794,0,0,0,2.115-.756,2.655,2.655,0,0,0,.718-1.883,2.805,2.805,0,0,0-.72-1.914,2.654,2.654,0,0,0-2.092-.811h-4.553Z" transform="translate(-297.986 -313.53)" fill="#fff"/>
      </g>
      <g id="Groupe_878" data-name="Groupe 878" transform="translate(0 4.802)">
        <path id="Tracé_322" data-name="Tracé 322" d="M311.1,328.691h-2.919l-.014-.015-4.563-5.187h-3.115v5.2h-2.5V313.53h.047c.77,0,1.949,0,3.5.012s2.733.012,3.5.012a5.25,5.25,0,0,1,3.934,1.463,4.876,4.876,0,0,1,1.421,3.5,4.989,4.989,0,0,1-1.009,3.112,4.534,4.534,0,0,1-3.029,1.606l4.434,4.945ZM300.487,321.2h4.532a2.794,2.794,0,0,0,2.115-.756,2.655,2.655,0,0,0,.718-1.883,2.805,2.805,0,0,0-.72-1.914,2.654,2.654,0,0,0-2.092-.811h-4.553Z" transform="translate(-297.986 -313.53)" fill="#fff"/>
      </g>
      <g id="Groupe_879" data-name="Groupe 879" transform="translate(16.578 4.825)">
        <path id="Tracé_323" data-name="Tracé 323" d="M337.233,328.707H326.026V313.568H337.17V316h-8.641v3.968h8.3V322.3h-8.3v3.949h8.7Z" transform="translate(-326.026 -313.568)" fill="#fff"/>
      </g>
      <g id="Groupe_880" data-name="Groupe 880" transform="translate(16.578 4.825)">
        <path id="Tracé_324" data-name="Tracé 324" d="M337.233,328.707H326.026V313.568H337.17V316h-8.641v3.968h8.3V322.3h-8.3v3.949h8.7Z" transform="translate(-326.026 -313.568)" fill="#fff"/>
      </g>
      <g id="Groupe_881" data-name="Groupe 881" transform="translate(30.794 4.456)">
        <path id="Tracé_325" data-name="Tracé 325" d="M358.026,328.753a9.5,9.5,0,0,1-3.575-.637,6.417,6.417,0,0,1-2.5-1.733,7.722,7.722,0,0,1-1.405-2.445,8.721,8.721,0,0,1-.475-2.9,8.263,8.263,0,0,1,2.118-5.759,7.533,7.533,0,0,1,5.838-2.329,7.69,7.69,0,0,1,5.6,2.295l.033.033-.033.033-1.537,1.582-.034-.034a5.184,5.184,0,0,0-1.864-1.18,6.1,6.1,0,0,0-2.165-.416A5.169,5.169,0,0,0,354,316.915a5.887,5.887,0,0,0-1.469,4.119,5.55,5.55,0,0,0,1.383,3.815,5.241,5.241,0,0,0,4.114,1.554,5.515,5.515,0,0,0,3.628-1.308v-2.983h-4.191v-2.242h6.521V326.1l-.012.015A7.752,7.752,0,0,1,358.026,328.753Z" transform="translate(-350.07 -312.945)" fill="#fff"/>
      </g>
      <g id="Groupe_882" data-name="Groupe 882" transform="translate(30.794 4.456)">
        <path id="Tracé_326" data-name="Tracé 326" d="M358.026,328.753a9.5,9.5,0,0,1-3.575-.637,6.417,6.417,0,0,1-2.5-1.733,7.722,7.722,0,0,1-1.405-2.445,8.721,8.721,0,0,1-.475-2.9,8.263,8.263,0,0,1,2.118-5.759,7.533,7.533,0,0,1,5.838-2.329,7.69,7.69,0,0,1,5.6,2.295l.033.033-.033.033-1.537,1.582-.034-.034a5.184,5.184,0,0,0-1.864-1.18,6.1,6.1,0,0,0-2.165-.416A5.169,5.169,0,0,0,354,316.915a5.887,5.887,0,0,0-1.469,4.119,5.55,5.55,0,0,0,1.383,3.815,5.241,5.241,0,0,0,4.114,1.554,5.515,5.515,0,0,0,3.628-1.308v-2.983h-4.191v-2.242h6.521V326.1l-.012.015A7.752,7.752,0,0,1,358.026,328.753Z" transform="translate(-350.07 -312.945)" fill="#fff"/>
      </g>
      <g id="Groupe_883" data-name="Groupe 883" transform="translate(48.768 4.825)">
        <path id="Tracé_327" data-name="Tracé 327" d="M382.951,328.707h-2.48V313.568h2.48Z" transform="translate(-380.471 -313.568)" fill="#fff"/>
      </g>
      <g id="Groupe_884" data-name="Groupe 884" transform="translate(48.768 4.825)">
        <path id="Tracé_328" data-name="Tracé 328" d="M382.951,328.707h-2.48V313.568h2.48Z" transform="translate(-380.471 -313.568)" fill="#fff"/>
      </g>
      <g id="Groupe_885" data-name="Groupe 885" transform="translate(56.014 4.825)">
        <path id="Tracé_329" data-name="Tracé 329" d="M403.934,328.707H392.727V313.568h11.144V316h-8.641v3.968h8.3V322.3h-8.3v3.949h8.7Z" transform="translate(-392.727 -313.568)" fill="#fff"/>
      </g>
      <g id="Groupe_886" data-name="Groupe 886" transform="translate(56.014 4.825)">
        <path id="Tracé_330" data-name="Tracé 330" d="M403.934,328.707H392.727V313.568h11.144V316h-8.641v3.968h8.3V322.3h-8.3v3.949h8.7Z" transform="translate(-392.727 -313.568)" fill="#fff"/>
      </g>
      <g id="Groupe_887" data-name="Groupe 887" transform="translate(75.908 4.825)">
        <path id="Tracé_331" data-name="Tracé 331" d="M432.118,328.707h-5.743V313.568h5.743a8.552,8.552,0,0,1,3.339.626,6.235,6.235,0,0,1,2.382,1.7,7.955,7.955,0,0,1,1.373,2.371,8.28,8.28,0,0,1,.5,2.742,8.13,8.13,0,0,1-.411,2.821,7.843,7.843,0,0,1-1.35,2.455,6.307,6.307,0,0,1-2.415,1.766A8.525,8.525,0,0,1,432.118,328.707Zm-3.263-2.416h3.263a4.739,4.739,0,0,0,3.855-1.562,5.521,5.521,0,0,0,1.258-3.741,6.232,6.232,0,0,0-.555-2.432,4.364,4.364,0,0,0-1.69-1.851,5.3,5.3,0,0,0-2.867-.745h-3.263Z" transform="translate(-426.375 -313.568)" fill="#fff"/>
      </g>
      <g id="Groupe_888" data-name="Groupe 888" transform="translate(75.908 4.825)">
        <path id="Tracé_332" data-name="Tracé 332" d="M432.118,328.707h-5.743V313.568h5.743a8.552,8.552,0,0,1,3.339.626,6.235,6.235,0,0,1,2.382,1.7,7.955,7.955,0,0,1,1.373,2.371,8.28,8.28,0,0,1,.5,2.742,8.13,8.13,0,0,1-.411,2.821,7.843,7.843,0,0,1-1.35,2.455,6.307,6.307,0,0,1-2.415,1.766A8.525,8.525,0,0,1,432.118,328.707Zm-3.263-2.416h3.263a4.739,4.739,0,0,0,3.855-1.562,5.521,5.521,0,0,0,1.258-3.741,6.232,6.232,0,0,0-.555-2.432,4.364,4.364,0,0,0-1.69-1.851,5.3,5.3,0,0,0-2.867-.745h-3.263Z" transform="translate(-426.375 -313.568)" fill="#fff"/>
      </g>
      <g id="Groupe_889" data-name="Groupe 889" transform="translate(92.591 4.845)">
        <path id="Tracé_333" data-name="Tracé 333" d="M461.19,329.005c-.112,0-.226,0-.341-.007a6.46,6.46,0,0,1-4.468-1.774,6.334,6.334,0,0,1-1.788-4.784V313.6h2.48v8.838a4.324,4.324,0,0,0,1.041,3.083,3.811,3.811,0,0,0,2.739,1.169c.105.006.209.008.31.008a3.638,3.638,0,0,0,2.665-1.038,4.358,4.358,0,0,0,1.146-3.223V313.6h2.48v8.838a6.432,6.432,0,0,1-1.863,4.945A6.259,6.259,0,0,1,461.19,329.005Z" transform="translate(-454.593 -313.602)" fill="#fff"/>
      </g>
      <g id="Groupe_890" data-name="Groupe 890" transform="translate(92.591 4.845)">
        <path id="Tracé_334" data-name="Tracé 334" d="M461.19,329.005c-.112,0-.226,0-.341-.007a6.46,6.46,0,0,1-4.468-1.774,6.334,6.334,0,0,1-1.788-4.784V313.6h2.48v8.838a4.324,4.324,0,0,0,1.041,3.083,3.811,3.811,0,0,0,2.739,1.169c.105.006.209.008.31.008a3.638,3.638,0,0,0,2.665-1.038,4.358,4.358,0,0,0,1.146-3.223V313.6h2.48v8.838a6.432,6.432,0,0,1-1.863,4.945A6.259,6.259,0,0,1,461.19,329.005Z" transform="translate(-454.593 -313.602)" fill="#fff"/>
      </g>
      <g id="Groupe_891" data-name="Groupe 891" transform="translate(112.975 0.562)">
        <path id="Tracé_335" data-name="Tracé 335" d="M505.838,325.764h-3.71l-.014-.015-5.856-6.653h-4.011v6.669h-3.178V306.358h.047c.967,0,2.379,0,4.492.012,1.994.01,3.506.016,4.492.016a6.727,6.727,0,0,1,5.033,1.872,6.241,6.241,0,0,1,1.817,4.483,6.367,6.367,0,0,1-1.291,3.982,5.786,5.786,0,0,1-3.9,2.057l5.7,6.356Zm-13.59-9.57h5.823a3.588,3.588,0,0,0,2.722-.977,3.4,3.4,0,0,0,.923-2.42,3.614,3.614,0,0,0-.925-2.464,3.418,3.418,0,0,0-2.692-1.046h-5.851Z" transform="translate(-489.069 -306.358)" fill="#fff"/>
      </g>
      <g id="Groupe_892" data-name="Groupe 892" transform="translate(112.975 0.562)">
        <path id="Tracé_336" data-name="Tracé 336" d="M505.838,325.764h-3.71l-.014-.015-5.856-6.653h-4.011v6.669h-3.178V306.358h.047c.967,0,2.379,0,4.492.012,1.994.01,3.506.016,4.492.016a6.727,6.727,0,0,1,5.033,1.872,6.241,6.241,0,0,1,1.817,4.483,6.367,6.367,0,0,1-1.291,3.982,5.786,5.786,0,0,1-3.9,2.057l5.7,6.356Zm-13.59-9.57h5.823a3.588,3.588,0,0,0,2.722-.977,3.4,3.4,0,0,0,.923-2.42,3.614,3.614,0,0,0-.925-2.464,3.418,3.418,0,0,0-2.692-1.046h-5.851Z" transform="translate(-489.069 -306.358)" fill="#fff"/>
      </g>
      <g id="Groupe_893" data-name="Groupe 893" transform="translate(134.222 0.59)">
        <path id="Tracé_337" data-name="Tracé 337" d="M541.436,325.783h-3.151v-8.018h-10.1v8.018h-3.178V306.405h3.178v8.4h10.1v-8.4h3.151Z" transform="translate(-525.006 -306.405)" fill="#fff"/>
      </g>
      <g id="Groupe_894" data-name="Groupe 894" transform="translate(134.222 0.59)">
        <path id="Tracé_338" data-name="Tracé 338" d="M541.436,325.783h-3.151v-8.018h-10.1v8.018h-3.178V306.405h3.178v8.4h10.1v-8.4h3.151Z" transform="translate(-525.006 -306.405)" fill="#fff"/>
      </g>
      <g id="Groupe_895" data-name="Groupe 895" transform="translate(155.606 0.23)">
        <path id="Tracé_339" data-name="Tracé 339" d="M571.085,325.948a10.889,10.889,0,0,1-4.372-.844,8.363,8.363,0,0,1-3.118-2.259,10.274,10.274,0,0,1-1.8-3.169,11.117,11.117,0,0,1-.623-3.721,10.052,10.052,0,0,1,2.794-7.291,9.63,9.63,0,0,1,7.17-2.867,9.269,9.269,0,0,1,7.282,2.979,10.549,10.549,0,0,1,2.572,7.152,11.422,11.422,0,0,1-.623,3.776,10.231,10.231,0,0,1-1.8,3.2,8.074,8.074,0,0,1-3.117,2.231A11.208,11.208,0,0,1,571.085,325.948Zm.055-17.248a6.378,6.378,0,0,0-5.021,2.024,7.673,7.673,0,0,0-1.793,5.26,8.7,8.7,0,0,0,.425,2.533,7.4,7.4,0,0,0,1.19,2.246,5.6,5.6,0,0,0,2.119,1.639,7.155,7.155,0,0,0,3.025.617,6.282,6.282,0,0,0,5.063-2.008,7.575,7.575,0,0,0,1.695-5.027,8.829,8.829,0,0,0-.669-3.453,6.283,6.283,0,0,0-2.243-2.694,6.586,6.586,0,0,0-3.79-1.136Z" transform="translate(-561.175 -305.797)" fill="#fff"/>
      </g>
      <g id="Groupe_896" data-name="Groupe 896" transform="translate(155.606 0.23)">
        <path id="Tracé_340" data-name="Tracé 340" d="M571.085,325.948a10.889,10.889,0,0,1-4.372-.844,8.363,8.363,0,0,1-3.118-2.259,10.274,10.274,0,0,1-1.8-3.169,11.117,11.117,0,0,1-.623-3.721,10.052,10.052,0,0,1,2.794-7.291,9.63,9.63,0,0,1,7.17-2.867,9.269,9.269,0,0,1,7.282,2.979,10.549,10.549,0,0,1,2.572,7.152,11.422,11.422,0,0,1-.623,3.776,10.231,10.231,0,0,1-1.8,3.2,8.074,8.074,0,0,1-3.117,2.231A11.208,11.208,0,0,1,571.085,325.948Zm.055-17.248a6.378,6.378,0,0,0-5.021,2.024,7.673,7.673,0,0,0-1.793,5.26,8.7,8.7,0,0,0,.425,2.533,7.4,7.4,0,0,0,1.19,2.246,5.6,5.6,0,0,0,2.119,1.639,7.155,7.155,0,0,0,3.025.617,6.282,6.282,0,0,0,5.063-2.008,7.575,7.575,0,0,0,1.695-5.027,8.829,8.829,0,0,0-.669-3.453,6.283,6.283,0,0,0-2.243-2.694,6.586,6.586,0,0,0-3.79-1.136Z" transform="translate(-561.175 -305.797)" fill="#fff"/>
      </g>
      <g id="Groupe_897" data-name="Groupe 897" transform="translate(180.379 0.59)">
        <path id="Tracé_341" data-name="Tracé 341" d="M619.562,325.783h-2.41l-.013-.018-10.857-13.51v13.528h-3.206V306.405h2.438l.014.017,10.857,13.618V306.405h3.177Z" transform="translate(-603.076 -306.405)" fill="#fff"/>
      </g>
      <g id="Groupe_898" data-name="Groupe 898" transform="translate(180.379 0.59)">
        <path id="Tracé_342" data-name="Tracé 342" d="M619.562,325.783h-2.41l-.013-.018-10.857-13.51v13.528h-3.206V306.405h2.438l.014.017,10.857,13.618V306.405h3.177Z" transform="translate(-603.076 -306.405)" fill="#fff"/>
      </g>
      <g id="Groupe_899" data-name="Groupe 899" transform="translate(203.004 0.59)">
        <path id="Tracé_343" data-name="Tracé 343" d="M655.678,325.783H641.343V306.405H655.6V309.5H644.52v5.114h10.635v2.959H644.52v5.088h11.158Z" transform="translate(-641.343 -306.405)" fill="#fff"/>
      </g>
      <g id="Groupe_900" data-name="Groupe 900" transform="translate(203.004 0.59)">
        <path id="Tracé_344" data-name="Tracé 344" d="M655.678,325.783H641.343V306.405H655.6V309.5H644.52v5.114h10.635v2.959H644.52v5.088h11.158Z" transform="translate(-641.343 -306.405)" fill="#fff"/>
      </g>
      <path id="Tracé_345" data-name="Tracé 345" d="M338.105,305.408l-3.063,3.061h-2.137l1.971-3.061Z" transform="translate(-312.26 -305.408)" fill="#fff"/>
    </g>
    <path id="Tracé_346" data-name="Tracé 346" d="M574.453,296.884l-5.169,1.477v2.153l5.169-1.476,5.169,1.476v-2.153Z" transform="translate(-408.451 -272.305)" fill="#fff"/>
  </g>
  <g id="Groupe_903" data-name="Groupe 903" transform="translate(0 0.468)">
    <path id="Tracé_347" data-name="Tracé 347" d="M193.073,270.57c6.972-1.851,13.672.614,22.762,4.031a75.09,75.09,0,0,0,9.444,2.956V256.1H176.163v22.807c7.288.243,14.786,4.827,21.8,5.6a34.568,34.568,0,0,0,14.552-1.174,22.819,22.819,0,0,0,4.121-1.784c-11.467-4.072-21.422-10.411-31.3-6.83-.312.113-.626.231-.938.365.157-.121.312-.232.469-.348A24.177,24.177,0,0,1,193.073,270.57Z" transform="translate(-163.98 -256.102)" fill="#fff"/>
    <path id="Tracé_348" data-name="Tracé 348" d="M216.857,301.386c-.146-.015-.291-.029-.439-.047a22.716,22.716,0,0,1-2.644-.5A26.658,26.658,0,0,1,195,308.966c-11.926.287-19.416-5.657-27.261-7.8a17.751,17.751,0,0,0-12.183.7c4.281-1.319,8.16-.494,12.183,1.128V322.8h49.117V304.156a16.328,16.328,0,0,0,12.073-5.047A20.6,20.6,0,0,1,216.857,301.386Z" transform="translate(-155.557 -273.682)" fill="#fff"/>
  </g>
</svg>
