<svg version="1.1" id="Calque_1" xmlns="http://www.w3.org/2000/svg" xmlns:xlink="http://www.w3.org/1999/xlink" x="0px" y="0px"
     viewBox="0 0 680.9 176.3" style="enable-background:new 0 0 680.9 176.3;" xml:space="preserve">
  <g>
    <rect x="6" y="12.7" width="154.2" height="154.2"/>
    <polygon fill="#FFFFFF" points="30.9,119.5 30.9,144.1 53,141.7 64.4,162.9 83.2,150 102.7,162.8 113.7,141.5 136.6,143.4 
      135.6,118.9 156.3,107.1 143.1,89.3 154.8,67.8 134.5,59.1 135.1,35.3 110.5,36.1 100.5,16.7 82.6,29.3 64.4,16.5 54.2,36.7 
      29.6,35.7 30.9,59.3 10.3,68.9 22.7,89.3 9.9,107.9   "/>
    <g>
      <path d="M24.9,89.7c0-32.1,26-58.2,58.2-58.2s58.2,26,58.2,58.2c0,32.1-26,58.2-58.2,58.2S24.9,121.9,24.9,89.7"/>
      <path fill="#FFFFFF" d="M61.6,41v10.7c0,0-18.4,8.7-21.9,32.6h21.9v54.5c0,0-21.5-8.2-29.1-32.2l10.2-0.1c0,0,2.1,6.2,7.3,11.9l0-23
        H30.1C30.1,95.4,24.5,59,61.6,41"/>
      <path fill="#FFFFFF" d="M67.3,38.9v101.9c4,1.1,11.3,2.1,11.3,2.1V95.4h19.9V38.7C82.5,33.8,67.3,38.9,67.3,38.9 M87.2,84.3h-8.4
        l0.1-38c4.9-0.5,8.3,0,8.3,0L87.2,84.3z"/>
      <path fill="#FFFFFF" d="M104.3,40.9c0,0,20.8,7.8,29,31.1h-10.4c0,0-2.8-6.4-7.5-11.5v56.7l1.6,0c0,0,7.4-7.3,9.3-21.8l-5.8-0.1v-11
        h15.6c0,0,5.6,36.5-31.7,54.4L104.3,40.9z"/>
    </g>
    <rect x="173" y="12.7" fill="#DC000C" width="154.2" height="154.2"/>
    <polygon fill="#FFFFFF" points="197.9,119.5 197.9,144.1 220,141.7 231.4,162.9 250.2,150 269.7,162.8 280.7,141.5 303.6,143.4 
      302.6,118.9 323.3,107.1 310.1,89.3 321.8,67.8 301.5,59.1 302.1,35.3 277.5,36.1 267.5,16.7 249.6,29.3 231.4,16.5 221.2,36.7 
      196.6,35.7 197.9,59.3 177.3,68.9 189.7,89.3 176.9,107.9   "/>
    <path fill="#DC000C" d="M191.9,89.7c0-32.1,26.1-58.2,58.2-58.2s58.2,26,58.2,58.2c0,32.1-26,58.2-58.2,58.2S191.9,121.9,191.9,89.7"
      />
    <path fill="#FFFFFF" d="M285.8,122.4h-20.4v0l0,0l-15.3-28.9h-6.4v17h7.6v11.8h-33.6v-11.8h7.5V66h-7.5V54.6h40.1l-0.1,0.1
      c3.6,0,16.3,0.8,20.3,12.1c5.1,14.3-6.9,23.5-9.9,24.2l10.4,19.6l0,0h7.1V122.4z M250.1,36.2c-29.6,0-53.5,24-53.5,53.5
      c0,29.6,24,53.5,53.5,53.5c29.6,0,53.5-24,53.5-53.5C303.6,60.2,279.6,36.2,250.1,36.2 M252.5,66h-8.7v15.5h8.7v0
      c4.3,0,7.7-3.5,7.7-7.7C260.3,69.5,256.8,66,252.5,66"/>
    <rect x="352.8" y="12.7" width="321.2" height="0.7"/>
    <rect x="352.8" y="166.1" width="321.2" height="0.7"/>
    <path d="M637.4,133.3v1h35.9v-12.9h-1.1c0,1.4-0.1,2.5-0.3,3.2c-0.2,0.8-0.6,1.7-1,2.5c-0.5,0.8-1,1.6-1.7,2.3
      c-0.7,0.7-1.4,1.3-2.1,1.7c-0.8,0.5-1.9,0.9-3.4,1.2c-0.8,0.1-1.7,0.3-2.7,0.4c-1.1,0.2-2.2,0.3-3.5,0.4c-1.3,0.1-2.9,0.1-4.7,0.1
      h-7.6l1.6-1.6l2-2.1l2.3-2.4l3.2-3.3l3.6-3.7l2.8-2.9l2.9-2.9l2.4-2.5l1.9-1.9l2.7-2.8l1.9-2l1.5-1.5v-0.7h-34.6v12h0.9
      c0-1.3,0.1-2.5,0.2-3.4c0.2-0.9,0.5-1.9,1-2.8c0.6-1,1.4-1.8,2.5-2.5c1.1-0.7,2.6-1.2,4.5-1.5c0.4,0,0.8-0.1,1.2-0.1
      c0.4-0.1,0.8-0.1,1-0.1l2.7-0.1h12.5l-2.5,2.6l-2.1,2.2l-1.9,1.9l-2.3,2.3l-2.1,2.2l-2.4,2.5l-2.5,2.5l-2.8,2.9l-2.6,2.7l-3.5,3.6
      l-2.2,2.3L637.4,133.3z M623.9,134.4v-1h-1.8c-0.6,0-1.2-0.1-1.7-0.3c-0.4-0.1-0.8-0.4-1.2-0.8c-0.5-0.6-0.8-1.2-1-1.8
      c-0.2-0.7-0.3-1.7-0.3-3.1v-23.2h3.4c1.6,0,2.7,0,3.3,0.1c0.6,0.1,1.3,0.2,2,0.5c0.7,0.3,1.3,0.6,1.8,0.9c0.4,0.2,0.7,0.5,0.9,0.7
      c0.3,0.2,0.5,0.5,0.8,0.9c0.5,0.7,0.9,1.7,1.2,2.9c0.2,1.2,0.4,2.9,0.5,5h1.1v-12.2h-36.1V115h1.1c0-0.8,0-1.4,0.1-2
      c0.1-0.5,0.2-1.4,0.5-2.7c0.3-1.5,0.8-2.7,1.3-3.4c0.5-0.6,1.1-1,1.7-1.4c0.9-0.5,1.7-0.9,2.5-1c0.8-0.2,1.9-0.2,3.2-0.3h4.8V126
      c0,1.9-0.1,3.2-0.2,4.1c-0.1,0.8-0.4,1.5-0.9,2.1c-0.4,0.5-0.9,0.8-1.4,1c-0.5,0.2-1.1,0.3-1.9,0.3h-1.4v1H623.9z M576,133
      c-0.7-0.2-1.3-0.6-1.7-1.1c-0.4-0.4-0.6-0.9-0.7-1.3c-0.1-0.4-0.2-1.1-0.3-2v-10.9l1.7-1.5l2.9-2.9l1.6-1.4l1.6-1.6l1.4-1.3
      l1.7-1.5l1.6-1.3l1.8-1.1l1.7-0.7c0.8-0.2,1.6-0.3,2.5-0.4l0-1h-14v1c1.4,0,2.3,0.1,2.7,0.1c0.4,0,0.8,0.1,1,0.1
      c1,0.2,1.4,0.5,1.4,1.2c0,0.4-0.1,0.8-0.4,1.2c-0.3,0.4-0.8,1-1.5,1.7l-1.5,1.6l-1.5,1.4l-1.8,1.6l-1.7,1.7l-1.8,1.6l-1.5-1.5
      l-1.9-1.7l-1.6-1.6l-2.1-1.9l-1.9-1.8c-0.5-0.5-0.8-0.8-1-1.1c-0.3-0.3-0.5-0.6-0.5-0.9c0-0.4,0.1-0.7,0.4-0.9
      c0.3-0.2,0.6-0.3,1.1-0.4c0.6-0.1,1.9-0.2,3.7-0.2v-1H549v0.9l2,0.4c0.5,0.1,0.9,0.3,1.4,0.5l1.7,1.1c0.8,0.5,1.4,1,1.9,1.5
      l1.9,1.8l1.6,1.4l1.6,1.5l1.4,1.3l1.3,1.2l3.9,3.8v10.9c0,0.8-0.1,1.3-0.2,1.5c-0.2,0.6-0.5,1.1-0.9,1.5c-0.6,0.5-1.2,0.8-1.9,0.9
      c-0.7,0.1-1.6,0.2-2.8,0.2l0,1h17.5v-1C577.8,133.3,576.7,133.2,576,133 M518.7,104.3c0.5,0,0.9-0.1,1.4-0.1c0.5,0,0.9,0,1.4-0.1
      c0.5,0,0.9,0,1.4-0.1c2.3-0.1,4.1-0.1,5.3-0.1c1.1,0,1.9,0.1,2.6,0.1c0.7,0.1,1.4,0.2,2.2,0.4c0.8,0.2,1.5,0.5,2.1,0.9
      c1,0.6,1.7,1.4,2.1,2.3c0.4,0.9,0.5,1.7,0.5,2.5c0,1.1-0.3,2.2-0.8,3.2c-0.5,1-1.3,1.7-2.3,2.3c-0.4,0.2-0.6,0.3-0.8,0.4
      c-0.2,0.1-0.6,0.2-1.3,0.4c-1.7,0.3-3.6,0.5-5.5,0.6h-0.1h-3.9c-1.3,0-3.1-0.2-5.6-0.3l0-12.4H518.7z M508.6,104
      c0.8,0.1,1.5,0.5,2,1.1c0.3,0.3,0.5,0.7,0.6,1.1c0.1,0.4,0.2,0.8,0.3,1.2c0,0.4,0.1,0.7,0.1,0.8v20c0,0.9-0.1,1.5-0.2,2.1
      c-0.1,0.5-0.4,0.9-0.6,1.3c-0.4,0.5-0.8,0.9-1.3,1.1c-0.5,0.3-1,0.4-1.5,0.5c-0.5,0.1-1.2,0.1-2.3,0.1v1h17.8v-1
      c-1.2,0-2.2-0.1-3-0.2c-0.8-0.2-1.4-0.5-2-1.2c-0.4-0.4-0.6-0.9-0.8-1.3c-0.1-0.5-0.2-1.1-0.3-1.8V118h4.1c0.6,0,1.3,0,2,0
      c0.7,0,1.3,0,1.7,0c0.9,0,2,0,3.2,0.2c1.5,0.2,2.7,0.4,3.6,0.7c0.9,0.3,1.8,0.9,2.5,1.8c0.5,0.6,0.9,1.3,1.2,2
      c0.2,0.6,0.4,1.4,0.4,2.2c0.1,1,0.2,1.9,0.3,2.7c0.1,0.8,0.2,1.6,0.4,2.5s0.4,1.5,0.6,2c0.3,0.7,0.8,1.3,1.3,1.8
      c0.6,0.6,1.3,1,1.9,1.2c0.7,0.2,1.5,0.3,2.4,0.3c0.9,0,1.7-0.1,2.2-0.2c0.5-0.1,1.1-0.4,1.8-0.7l-0.3-0.7c-0.5,0.1-0.9,0.2-1.3,0.2
      c-0.9,0-1.4-0.2-1.7-0.7c-0.3-0.5-0.6-1.3-0.9-2.4l-0.5-4.6c-0.4-1.9-1-3.3-1.8-4.3c-0.4-0.5-0.9-0.9-1.3-1.2
      c-0.5-0.3-1-0.6-1.6-0.8c-1.1-0.6-2.1-1-2.8-1.2c-0.7-0.3-1.7-0.5-2.9-0.8c1.9-0.2,3.5-0.4,4.7-0.6c1.2-0.3,2.4-0.7,3.5-1.4
      c2.4-1.4,3.6-3.3,3.6-5.6c0-0.9-0.2-1.7-0.6-2.4c-0.4-0.8-0.9-1.4-1.5-2c-0.7-0.6-1.4-1.1-2.2-1.4c-0.8-0.4-1.9-0.7-3.1-0.9
      c-1.2-0.2-2.8-0.3-4.9-0.5h-25.9v1C506.8,103.8,507.8,103.9,508.6,104 M476.3,104c-0.2,0.3-0.5,0.4-0.8,0.6
      c-0.4,0.1-0.8,0.2-1.3,0.2c-0.5,0-0.9-0.1-1.4-0.2c-0.4-0.1-1.1-0.3-2-0.7c-0.9-0.3-1.6-0.6-2.2-0.8c-2.5-0.8-5.1-1.2-7.8-1.2
      c-2.5,0-4.8,0.3-6.8,0.8c-2,0.6-3.6,1.2-4.9,1.8c-1.9,0.9-3.5,2-4.6,3.3c-1.1,1.2-2,2.5-2.7,3.7c-0.6,1.2-1.1,2.5-1.3,3.9
      c-0.2,1.3-0.3,2.5-0.3,3.4c0,3,0.7,5.6,2.1,7.8c0.5,0.8,1.2,1.7,2,2.6c0.8,0.9,1.6,1.5,2.3,2c0.5,0.4,1.1,0.7,1.8,1
      c0.3,0.1,0.7,0.3,1.2,0.6s0.8,0.4,1.1,0.6c0.8,0.4,1.8,0.7,2.9,0.9c1,0.3,2.1,0.5,3.2,0.6c1.1,0.2,2.3,0.2,3.7,0.2
      c1.2,0,3-0.1,5.4-0.3c0.4-0.1,1.7-0.3,3.8-0.6c0.7-0.1,1.3-0.3,1.8-0.4c0.4-0.1,1-0.2,1.6-0.4c0.6-0.1,1.1-0.3,1.5-0.3l2.9-0.9v-5
      c0-0.6,0.1-1.1,0.1-1.5s0.2-0.8,0.4-1.2c0.2-0.5,0.5-0.9,0.9-1.2c0.4-0.3,0.8-0.5,1.2-0.6c0.4-0.1,0.8-0.2,1.1-0.2c0.3,0,0.7,0,1,0
      l0-1.1h-15.5v1.1c1.1,0,1.9,0.1,2.6,0.2c0.7,0.2,1.2,0.5,1.6,1.1c0.4,0.4,0.6,0.9,0.7,1.4c0.1,0.5,0.1,1.1,0.1,1.9v4.5
      c-1.4,0.7-2.8,1.3-4.2,1.6l-4,0.7c-1,0.1-1.8,0.1-2.3,0.1c-1.3,0-2.5-0.1-3.6-0.4c-1.1-0.3-2.1-0.6-2.8-1c-0.8-0.4-1.5-0.8-2-1.2
      c-1.3-0.8-2.4-1.8-3.4-3.2c-0.8-1.2-1.5-2.7-1.9-4.4c-0.4-1.7-0.6-3.4-0.6-5c0-2,0.3-4.1,1-6.5c0.7-2.4,2.1-4.4,4.2-6.1
      c1.6-1.3,3.2-2.1,4.8-2.5c1.6-0.4,3.1-0.6,4.4-0.6c0.7,0,1.5,0.1,2.5,0.2c1,0.1,2.1,0.4,3.2,0.7c1.2,0.4,2.4,0.9,3.5,1.6
      c1.2,0.8,2.3,1.7,3.3,2.8c1.2,1.3,1.9,2.4,2.3,3.6c0.4,1.1,0.6,2.7,0.8,4.8h0.9v-14h-0.7C476.9,103.4,476.6,103.8,476.3,104
       M414.7,104c1.3,0,3.4,0.1,6.2,0.2c1.3,0.2,2.4,0.4,3.4,0.7c1,0.3,1.8,0.7,2.5,1.3c0.8,0.7,1.3,1.6,1.6,2.6c0.3,1,0.4,1.9,0.4,2.7
      c0,1.6-0.3,2.9-1,3.9c-0.7,1-1.4,1.7-2.3,2.2c-0.7,0.4-1.9,0.8-3.6,1.3c-1.5,0.1-2.3,0.2-2.5,0.2c-0.7,0.1-1.7,0.1-3.1,0.2h-0.8
      c-0.9,0-1.6,0-2.1-0.1c-0.5,0-1.1,0-1.7,0c-1.5-0.1-2.6-0.1-3.4-0.2l0-14.7C411.9,104.1,414,104,414.7,104 M399.3,104
      c0.7,0.1,1.3,0.4,1.8,0.8c0.6,0.4,1,1,1.2,1.9c0.1,0.6,0.2,1.2,0.2,2c0,0.7,0,1.7,0,3c0,1.3,0,2.4,0,3.3v2.8
      c0.1,2.5,0.1,4.4,0.1,5.7c0,1.2-0.1,3-0.2,5.4c-0.1,0.8-0.1,1.4-0.2,1.8c-0.1,0.4-0.3,0.8-0.7,1.2c-0.4,0.5-0.8,0.8-1.3,1
      c-0.5,0.2-1,0.4-1.4,0.4c-0.4,0-1.2,0.1-2.2,0.1v1.1h17.8v-1c-0.9,0-1.6,0-2.3-0.1c-0.6-0.1-1.2-0.2-1.8-0.5
      c-0.6-0.3-1-0.7-1.4-1.3c-0.3-0.5-0.4-0.9-0.5-1.4c-0.1-0.5-0.1-1-0.1-1.8v-8.1h1.1c2,0.1,3.6,0.2,4.7,0.2h5.6
      c1.9-0.1,3.2-0.1,4-0.2c0.7-0.1,2-0.3,3.8-0.6c0.2-0.1,0.5-0.1,0.8-0.2c0.3-0.1,0.7-0.2,1.1-0.3c0.4-0.1,0.9-0.3,1.3-0.6
      c1.7-0.9,2.8-2,3.4-3.4c0.6-1.4,0.9-2.7,0.9-3.8c0-1.6-0.4-2.9-1.1-3.9c-0.7-1.1-1.5-1.9-2.2-2.4c-0.8-0.6-1.6-1-2.4-1.2
      c-0.8-0.2-2-0.5-3.5-0.7l-4.2-0.2h-25v0.9C397.8,103.8,398.6,103.9,399.3,104 M388.7,103.6c-0.3,0.2-0.5,0.4-0.6,0.5
      c-0.2,0.1-0.3,0.1-0.5,0.1c-0.1,0-0.1,0-0.2,0c-0.1,0-0.2,0-0.4-0.1c-0.2,0-0.3,0-0.3,0l-7.1-1.6H379l-4.6-0.5
      c-1.5,0-2.7,0-3.8,0.1c-1.1,0-2.1,0.1-3.1,0.2c-1,0.1-2,0.3-3,0.6c-1,0.3-2,0.7-2.9,1.1c-0.7,0.3-1.4,0.8-2.2,1.4
      c-0.8,0.6-1.5,1.5-2.1,2.6c-0.6,1.1-1,2.4-1,3.8c0,1.8,0.5,3.3,1.4,4.5c1,1.1,1.9,1.9,3,2.4c0.7,0.3,1.9,0.6,3.6,0.9l3.7,0.7h0.3
      l14.3,2.1c1.5,0.4,2.7,0.8,3.5,1.4c0.8,0.6,1.2,1.5,1.2,2.9c0,1.6-0.6,2.9-1.7,4c-0.5,0.5-1.3,1-2.3,1.5c-1,0.5-2.2,0.9-3.6,1.3
      c-1.4,0.3-2.9,0.5-4.5,0.5c-1.9,0-4.2-0.3-6.7-1c-2.5-0.7-4.8-2.1-7-4.2c-1.9-1.8-3.1-3.7-3.7-5.9c-0.2-0.7-0.3-1.4-0.3-2.1h-1.1
      v13.5h0.5c0.3-0.6,0.6-1,1-1.4c0.3-0.3,0.9-0.5,1.7-0.5c0.6,0,1.7,0.2,3.3,0.7l4.7,1.3h0.2l3.7,0.6c1.8,0.1,3.1,0.2,4,0.2
      c3.2,0,6.4-0.6,9.3-1.9c1.7-0.7,3.1-1.7,4-2.7c1-1.1,1.7-2.1,2-3.2c0.4-1.1,0.6-2.1,0.6-3.1c0-1.3-0.3-2.5-0.8-3.5
      c-0.9-1.8-2.6-3-5.1-3.7c-1.1-0.3-2.7-0.5-4.7-0.8l-10.5-1.6c-3-0.3-5.4-0.7-7.2-1.3c-0.8-0.3-1.5-0.6-1.9-0.8
      c-0.4-0.3-0.7-0.7-1-1.2c-0.2-0.4-0.3-0.9-0.3-1.6c0-0.7,0.2-1.5,0.6-2.3c0.7-1.3,2-2.3,4-3.1c2.3-0.9,4.7-1.4,7.3-1.4
      c1.1,0,2.3,0.1,3.7,0.2c1.4,0.2,3,0.5,4.8,1.1c1.8,0.6,3.4,1.5,4.8,2.6c1.5,1.2,2.4,2.3,2.8,3.4c0.4,1.1,0.7,2.4,0.9,3.9h1v-11
      h-0.5C389.2,103.2,388.9,103.4,388.7,103.6"/>
    <rect x="491" y="121.6" width="11.8" height="2.9"/>
    <g>
      <path d="M631.7,47.3c1,0.4,1.6,1.1,2,2.1c0.3,0.9,0.5,2.6,0.7,4.8v12.2c0,1.2,0,2.9-0.1,5c0,2.1-0.1,4.1-0.1,6c0,0.1,0,0.2,0,0.5
        c0,0.3-0.1,0.6-0.1,0.9c-0.1,0.3-0.2,0.6-0.3,0.9c-0.2,0.3-0.4,0.6-0.7,0.9c-0.7,0.7-1.5,1.2-2.5,1.4c-0.9,0.2-2.1,0.3-3.6,0.3
        v1.3H674V66.5h-1.2c-0.1,2.1-0.2,3.7-0.3,4.8c-0.2,1.1-0.5,2.3-1,3.5c-1.1,2.7-2.9,4.6-5.2,5.7c-1.1,0.5-2.7,0.9-4.8,1.3
        c-3.1,0.3-5.6,0.4-7.4,0.4c-0.6,0-1.2,0-1.8,0c-0.5,0-1.2,0-2.1,0c-3.2-0.1-6.2-0.2-8.7-0.3V63.9h10.8c0.1,0,0.4,0,0.8,0.1
        c0.4,0,0.8,0.1,1.2,0.2c0.4,0.1,0.8,0.3,1.3,0.5c0.5,0.2,0.9,0.5,1.2,0.8c1.1,0.9,1.7,2,2.1,3.2c0.3,1.2,0.5,2.9,0.6,4.9h1.2V53.1
        h-1.2c0,1.1-0.1,2.1-0.2,3.1c-0.1,1-0.4,1.9-0.7,2.8c-0.4,0.9-0.9,1.6-1.6,2.1c-0.8,0.6-1.7,0.9-2.5,1.1c-0.9,0.2-1.9,0.3-3.1,0.3
        h-9.7V47.3h1.7l5.1-0.2c1.4,0,3.6-0.1,6.5-0.1c0.9,0,3.4,0.2,7.7,0.4c1.4,0.3,2.3,0.6,2.9,0.8c1.1,0.5,2.1,1.2,2.9,2.2
        c1.1,1.2,1.8,2.5,2.1,4c0.3,1.4,0.5,2.9,0.5,4.5l1.3,0.1V45.4H627v1.1C629.2,46.6,630.7,46.9,631.7,47.3 M598.6,46.8
        c1.6,0,4.2,0.1,7.6,0.2c1.5,0.2,2.9,0.5,4.1,0.9c1.2,0.3,2.2,0.9,3,1.6c1,0.9,1.6,1.9,1.9,3.1c0.3,1.2,0.5,2.3,0.5,3.2
        c0,1.9-0.4,3.5-1.2,4.7c-0.8,1.2-1.7,2.1-2.8,2.7c-0.9,0.5-2.4,1-4.4,1.5c-1.8,0.2-2.8,0.3-3.1,0.3c-0.8,0.1-2,0.1-3.7,0.2h-0.9
        c-1.1,0-1.9-0.1-2.6-0.1c-0.6,0-1.3,0-2.1,0c-1.8-0.1-3.2-0.1-4.2-0.2l-0.1-17.9C595.1,46.9,597.7,46.8,598.6,46.8 M579.8,46.8
        c0.8,0.1,1.6,0.5,2.2,1c0.7,0.5,1.2,1.3,1.5,2.3c0.2,0.7,0.3,1.5,0.3,2.4c0,0.8,0,2,0,3.7c0,1.6,0,3,0,4v3.4
        c0.1,3.1,0.1,5.4,0.1,6.9c0,1.5-0.1,3.7-0.2,6.5c-0.1,1-0.2,1.7-0.3,2.2c-0.1,0.5-0.4,1-0.8,1.5c-0.4,0.6-1,1-1.6,1.3
        c-0.6,0.3-1.2,0.4-1.7,0.5c-0.5,0.1-1.4,0.1-2.7,0.1v1.3h21.6v-1.3c-1.1,0-2,0-2.8-0.1c-0.8-0.1-1.5-0.3-2.2-0.6
        c-0.7-0.3-1.3-0.9-1.7-1.6c-0.3-0.6-0.5-1.1-0.6-1.7c-0.1-0.6-0.1-1.3-0.1-2.1v-9.8h1.4c2.5,0.1,4.4,0.2,5.8,0.3h6.8
        c2.3-0.1,3.9-0.2,4.8-0.3c0.9-0.1,2.5-0.3,4.7-0.7c0.3-0.1,0.6-0.2,1-0.3c0.4-0.1,0.8-0.2,1.3-0.4s1-0.4,1.6-0.7
        c2-1.1,3.4-2.5,4.1-4.2c0.8-1.7,1.1-3.2,1.1-4.6c0-1.9-0.4-3.5-1.3-4.8c-0.9-1.3-1.8-2.3-2.7-2.9c-1-0.7-2-1.2-3-1.5
        c-1-0.3-2.4-0.6-4.2-0.9l-5.1-0.3h-30.4v1.1C577.9,46.6,579,46.7,579.8,46.8 M515.4,45.4v1.4c0.6,0,1.3,0,1.9,0.1
        c0.6,0,1.1,0.1,1.5,0.1c0.3,0.1,0.7,0.2,1,0.3c0.3,0.2,0.7,0.4,1,0.7c0.6,0.5,1,1.1,1.2,1.7c0.2,0.6,0.3,1.5,0.4,2.6v13.5
        c0.2,2.1,0.4,3.8,0.6,5.1c0.3,1.3,0.7,2.7,1.5,4.2c0.3,0.6,0.7,1.4,1.3,2.1c0.9,1.2,2.1,2.3,3.5,3.3c1.4,1,3,1.8,4.6,2.4
        c1.7,0.6,3.4,1.1,5.1,1.4c1.7,0.3,3.3,0.4,4.9,0.4c3.4,0,6.2-0.5,8.5-1.4c2.3-0.9,4.2-2,5.6-3.3c2.3-2,3.9-4.2,4.7-6.4
        c0.8-2.3,1.2-4.5,1.4-6.6c0-0.7,0.1-1.3,0.1-1.7c0-0.4,0-0.9,0-1.5V51.6c0-1.3,0.3-2.4,0.9-3.2c0.5-0.6,1.2-1,2-1.3
        c0.8-0.2,1.9-0.4,3.3-0.5v-1.3h-15.3v1.4c1.9,0,3.4,0.2,4.5,0.5c1.2,0.3,1.9,1.2,2.3,2.6c0.2,0.6,0.3,1.5,0.3,2.6v13.1
        c-0.1,1.7-0.2,3-0.4,4c-0.1,0.9-0.4,1.9-0.8,2.9c-0.9,2.3-2.2,4.3-4,5.9c-3.2,2.9-7.3,4.4-12.5,4.5c-1.3,0-2.6-0.1-3.8-0.4
        c-1.1-0.3-2.1-0.7-3.1-1.2c-1-0.5-1.8-1-2.4-1.4c-1.4-1-2.6-2.2-3.6-3.6c-1-1.4-1.7-3.4-2-6c-0.1-0.6-0.1-1.2-0.1-1.7
        c0-0.5-0.1-1.2-0.2-1.9V54c0-2.9,0.5-4.9,1.5-5.9c0.5-0.5,1.1-0.9,2-1.1c0.8-0.2,2.1-0.4,3.8-0.5v-1.2H515.4z M471.5,59.3
        c0.2-1.6,0.8-3.3,1.6-5.1c0.8-1.7,1.7-3.1,2.8-4.3c1.6-1.6,3.5-2.7,5.6-3.2c2.1-0.5,4-0.8,5.5-0.8c2.5,0,4.7,0.4,6.5,1.2
        c1.8,0.8,3.2,1.7,4.2,2.7c0.5,0.5,1,1,1.4,1.5c0.4,0.5,0.8,1.1,1.1,1.5c0.7,1.1,1.2,2.1,1.6,2.9c0.5,1.2,1,2.7,1.3,4.5
        c0.3,1.8,0.5,3.5,0.5,5.2c0,3.1-0.4,5.8-1.3,7.9c-0.9,2.2-1.9,3.9-3.1,5.3c-0.7,0.9-1.6,1.6-2.5,2.2c-2.4,1.5-5.4,2.2-9,2.2
        c-2.3,0-4.5-0.4-6.5-1.3c-2-0.8-3.8-2.1-5.2-3.8c-0.7-0.9-1.4-1.9-2.1-3.2c-0.7-1.3-1.2-2.8-1.7-4.6c-0.5-1.8-0.8-3.8-0.8-6.1
        C471.1,62.4,471.3,60.9,471.5,59.3 M470.4,49.4c-1.7,1.2-3.1,2.7-4.3,4.6c-1.2,1.9-2,3.8-2.4,5.8c-0.2,0.7-0.3,1.4-0.4,2.2
        c-0.1,0.8-0.1,1.4-0.2,1.8c0.1,1.4,0.2,2.9,0.4,4.3c0.2,1.4,0.6,2.9,1.3,4.5c1.1,2.6,2.8,4.8,5.1,6.7c1.9,1.5,4.2,2.8,6.7,3.9
        c2.6,1,5.8,1.6,9.6,1.6c2.2,0,4.2-0.2,6.1-0.5c1.9-0.3,3.6-0.7,5-1.2c1.4-0.5,2.6-0.9,3.5-1.4c2.3-1.1,4.2-2.5,5.8-4.2
        c1.6-1.7,2.8-3.7,3.7-5.9c0.8-2.2,1.3-4.6,1.3-7.1c0-4.2-1.1-8-3.4-11.3c-0.9-1.3-2.1-2.6-3.7-3.9c-1.7-1.4-3.9-2.7-6.6-3.6
        c-2.6-1-5.8-1.5-9.6-1.5c-3.4,0-6.7,0.5-9.8,1.4l-4.3,1.6C472.9,47.8,471.6,48.5,470.4,49.4 M423.4,47.2c0.6,0,1.1-0.1,1.7-0.1
        c0.6,0,1.1,0,1.7-0.1c0.6,0,1.1,0,1.7-0.1c2.9-0.1,5-0.1,6.4-0.1c1.3,0,2.3,0.1,3.2,0.1c0.8,0.1,1.7,0.2,2.6,0.5
        c0.9,0.2,1.8,0.6,2.6,1.1c1.2,0.8,2.1,1.7,2.5,2.8c0.4,1.1,0.7,2.1,0.7,3.1c0,1.4-0.3,2.7-1,3.9c-0.6,1.2-1.6,2.1-2.8,2.8
        c-0.4,0.3-0.8,0.4-1,0.5c-0.2,0.1-0.8,0.2-1.6,0.5c-2.1,0.4-4.3,0.6-6.7,0.7h-0.1h-4.8c-1.5-0.1-3.8-0.2-6.8-0.4l-0.1-15.1H423.4z
         M411.2,46.9c1,0.2,1.8,0.6,2.4,1.3c0.3,0.4,0.6,0.8,0.7,1.3c0.2,0.5,0.3,1,0.3,1.5c0.1,0.5,0.1,0.8,0.1,1v24.4
        c0,1-0.1,1.9-0.2,2.5c-0.2,0.6-0.4,1.1-0.8,1.6c-0.4,0.6-1,1.1-1.6,1.4c-0.6,0.3-1.3,0.5-1.8,0.6c-0.6,0.1-1.5,0.1-2.8,0.2v1.3
        h21.7v-1.3c-1.5,0-2.7-0.1-3.6-0.3c-0.9-0.2-1.7-0.7-2.4-1.4c-0.5-0.5-0.8-1.1-0.9-1.6c-0.2-0.6-0.3-1.3-0.4-2.2V63.9h5
        c0.7,0,1.6,0,2.4-0.1c0.9,0,1.6,0,2.1,0c1.1,0,2.4,0.1,4,0.2c1.8,0.2,3.3,0.5,4.4,0.9c1.2,0.4,2.2,1.1,3.1,2.2
        c0.6,0.8,1.1,1.6,1.4,2.5c0.3,0.8,0.4,1.7,0.5,2.6c0.1,1.2,0.2,2.3,0.3,3.3c0.1,1,0.3,2,0.5,3c0.2,1,0.5,1.8,0.8,2.4
        c0.4,0.8,0.9,1.5,1.6,2.1c0.7,0.7,1.5,1.2,2.3,1.5c0.8,0.3,1.8,0.4,2.9,0.4c1.1,0,2-0.1,2.7-0.2c0.6-0.2,1.4-0.4,2.2-0.9l-0.3-0.9
        c-0.6,0.1-1.1,0.2-1.5,0.2c-1,0-1.7-0.3-2.1-0.9c-0.3-0.6-0.7-1.6-1.1-3l-0.6-5.6c-0.5-2.3-1.2-4-2.2-5.2
        c-0.5-0.6-1.1-1.1-1.6-1.4c-0.6-0.3-1.2-0.7-2-1c-1.4-0.7-2.5-1.2-3.5-1.5c-0.9-0.3-2.1-0.6-3.5-1c2.3-0.2,4.3-0.5,5.7-0.8
        c1.5-0.3,2.9-0.9,4.2-1.7c2.9-1.7,4.4-4,4.4-6.8c0-1.1-0.2-2-0.7-3c-0.5-0.9-1.1-1.7-1.9-2.5c-0.8-0.7-1.7-1.3-2.6-1.7
        c-1-0.5-2.3-0.8-3.7-1.1c-1.5-0.2-3.4-0.4-6-0.5h-31.5v1.2C409,46.6,410.2,46.7,411.2,46.9 M396.6,46.9c-0.3,0.3-0.6,0.5-1,0.7
        c-0.4,0.2-1,0.3-1.6,0.3c-0.6,0-1.1-0.1-1.7-0.2c-0.5-0.1-1.3-0.4-2.4-0.8c-1.1-0.4-2-0.7-2.6-0.9c-3.1-1-6.2-1.5-9.5-1.5
        c-3.1,0-5.8,0.3-8.2,1c-2.4,0.7-4.4,1.4-6,2.2c-2.4,1.1-4.2,2.5-5.6,4c-1.4,1.5-2.5,3-3.3,4.5c-0.8,1.5-1.3,3.1-1.5,4.7
        c-0.3,1.6-0.4,3-0.4,4.1c0,3.7,0.8,6.9,2.5,9.6c0.7,1,1.5,2.1,2.5,3.1c1,1.1,1.9,1.9,2.8,2.5c0.6,0.4,1.3,0.9,2.1,1.3
        c0.4,0.2,0.8,0.4,1.4,0.7c0.6,0.3,1,0.5,1.3,0.7c1,0.4,2.2,0.8,3.6,1.2c1.2,0.3,2.5,0.6,3.8,0.8s2.8,0.3,4.5,0.3
        c1.5,0,3.7-0.1,6.6-0.3c0.5-0.1,2-0.3,4.7-0.8c0.9-0.2,1.6-0.3,2.2-0.5s1.2-0.3,2-0.5c0.8-0.2,1.4-0.3,1.8-0.4l3.5-1v-6.1
        c0-0.8,0.1-1.4,0.1-1.9c0.1-0.5,0.2-1,0.5-1.5c0.3-0.6,0.7-1.1,1.2-1.4c0.5-0.4,1-0.6,1.4-0.7c0.5-0.1,0.9-0.2,1.3-0.2
        c0.4,0,0.8,0,1.2,0l0.1-1.4H385v1.4c1.3,0,2.3,0.1,3.2,0.3c0.8,0.2,1.5,0.6,2,1.3c0.4,0.5,0.7,1.1,0.8,1.7
        c0.1,0.6,0.2,1.4,0.2,2.4v5.5c-1.7,0.9-3.4,1.5-5.1,2l-4.8,0.9c-1.2,0.1-2.2,0.1-2.8,0.1c-1.6,0-3-0.2-4.4-0.5
        c-1.4-0.3-2.5-0.7-3.5-1.2c-1-0.5-1.8-0.9-2.5-1.4c-1.6-0.9-3-2.2-4.2-3.9c-1-1.5-1.8-3.2-2.3-5.3c-0.5-2.1-0.8-4.1-0.8-6.1
        c0-2.4,0.4-5,1.3-7.9s2.6-5.4,5.2-7.5c1.9-1.5,3.8-2.6,5.8-3.1c2-0.5,3.7-0.8,5.3-0.8c0.9,0,1.9,0.1,3.1,0.2
        c1.2,0.2,2.5,0.4,3.9,0.9c1.4,0.4,2.9,1.1,4.3,1.9c1.5,0.9,2.8,2.1,4,3.4c1.4,1.5,2.3,3,2.8,4.3c0.4,1.4,0.8,3.3,0.9,5.8h1.2v-17
        h-0.9C397.3,46,396.9,46.5,396.6,46.9"/>
    </g>
  </g>
</svg>